{
	"asset":{
		"generator":"Khronos glTF Blender I/O v4.5.47",
		"version":"2.0"
	},
	"scene":0,
	"scenes":[
		{
			"name":"Scene",
			"nodes":[
				0
			]
		}
	],
	"nodes":[
		{
			"mesh":0,
			"name":"road_paved",
			"translation":[
				-21,
				-0.02075769752264023,
				-5
			]
		}
	],
	"materials":[
		{
			"doubleSided":true,
			"name":"blue_button",
			"pbrMetallicRoughness":{
				"baseColorFactor":[
					0.042204201221466064,
					0.2679113745689392,
					0.44257521629333496,
					1
				],
				"metallicFactor":0,
				"roughnessFactor":0.5
			}
		},
		{
			"doubleSided":true,
			"name":"red_button",
			"pbrMetallicRoughness":{
				"baseColorFactor":[
					0.2388387769460678,
					0.01526559703052044,
					0.0028862718027085066,
					1
				],
				"metallicFactor":0,
				"roughnessFactor":0.8500000238418579
			}
		},
		{
			"doubleSided":true,
			"name":"grass_middle",
			"pbrMetallicRoughness":{
				"baseColorFactor":[
					0.08649954944849014,
					0.3662531077861786,
					0.0781875029206276,
					1
				],
				"metallicFactor":0,
				"roughnessFactor":0.5636363625526428
			}
		},
		{
			"doubleSided":true,
			"name":"yellow_button",
			"pbrMetallicRoughness":{
				"baseColorFactor":[
					0.4083537459373474,
					0.19739873707294464,
					0,
					1
				],
				"metallicFactor":0.06818182021379471,
				"roughnessFactor":0.5090909004211426
			}
		}
	],
	"meshes":[
		{
			"name":"Plane.059",
			"primitives":[
				{
					"attributes":{
						"POSITION":0,
						"NORMAL":1,
						"TEXCOORD_0":2
					},
					"indices":3,
					"material":0
				},
				{
					"attributes":{
						"POSITION":4,
						"NORMAL":5,
						"TEXCOORD_0":6
					},
					"indices":7,
					"material":1
				},
				{
					"attributes":{
						"POSITION":8,
						"NORMAL":9,
						"TEXCOORD_0":10
					},
					"indices":11,
					"material":2
				},
				{
					"attributes":{
						"POSITION":12,
						"NORMAL":13,
						"TEXCOORD_0":14
					},
					"indices":15,
					"material":3
				}
			]
		}
	],
	"accessors":[
		{
			"bufferView":0,
			"componentType":5126,
			"count":9694,
			"max":[
				1.2351869344711304,
				0.10297180712223053,
				2.66616153717041
			],
			"min":[
				-1.2455533742904663,
				-0.02860661968588829,
				-4.9496355056762695
			],
			"type":"VEC3"
		},
		{
			"bufferView":1,
			"componentType":5126,
			"count":9694,
			"type":"VEC3"
		},
		{
			"bufferView":2,
			"componentType":5126,
			"count":9694,
			"type":"VEC2"
		},
		{
			"bufferView":3,
			"componentType":5123,
			"count":50832,
			"type":"SCALAR"
		},
		{
			"bufferView":4,
			"componentType":5126,
			"count":9696,
			"max":[
				2.2372589111328125,
				0.10011081397533417,
				2.5595953464508057
			],
			"min":[
				-1.0403163433074951,
				-0.032621514052152634,
				-4.468067169189453
			],
			"type":"VEC3"
		},
		{
			"bufferView":5,
			"componentType":5126,
			"count":9696,
			"type":"VEC3"
		},
		{
			"bufferView":6,
			"componentType":5126,
			"count":9696,
			"type":"VEC2"
		},
		{
			"bufferView":7,
			"componentType":5123,
			"count":50832,
			"type":"SCALAR"
		},
		{
			"bufferView":8,
			"componentType":5126,
			"count":7251,
			"max":[
				1.7174264192581177,
				0.10703316330909729,
				1.9027220010757446
			],
			"min":[
				-1.1584513187408447,
				-0.028804080560803413,
				-3.8367254734039307
			],
			"type":"VEC3"
		},
		{
			"bufferView":9,
			"componentType":5126,
			"count":7251,
			"type":"VEC3"
		},
		{
			"bufferView":10,
			"componentType":5126,
			"count":7251,
			"type":"VEC2"
		},
		{
			"bufferView":11,
			"componentType":5123,
			"count":37836,
			"type":"SCALAR"
		},
		{
			"bufferView":12,
			"componentType":5126,
			"count":9696,
			"max":[
				1.5331089496612549,
				0.1596168875694275,
				3.1038148403167725
			],
			"min":[
				-0.8701307773590088,
				-0.023289736360311508,
				-3.266206979751587
			],
			"type":"VEC3"
		},
		{
			"bufferView":13,
			"componentType":5126,
			"count":9696,
			"type":"VEC3"
		},
		{
			"bufferView":14,
			"componentType":5126,
			"count":9696,
			"type":"VEC2"
		},
		{
			"bufferView":15,
			"componentType":5123,
			"count":50832,
			"type":"SCALAR"
		}
	],
	"bufferViews":[
		{
			"buffer":0,
			"byteLength":116328,
			"byteOffset":0,
			"target":34962
		},
		{
			"buffer":0,
			"byteLength":116328,
			"byteOffset":116328,
			"target":34962
		},
		{
			"buffer":0,
			"byteLength":77552,
			"byteOffset":232656,
			"target":34962
		},
		{
			"buffer":0,
			"byteLength":101664,
			"byteOffset":310208,
			"target":34963
		},
		{
			"buffer":0,
			"byteLength":116352,
			"byteOffset":411872,
			"target":34962
		},
		{
			"buffer":0,
			"byteLength":116352,
			"byteOffset":528224,
			"target":34962
		},
		{
			"buffer":0,
			"byteLength":77568,
			"byteOffset":644576,
			"target":34962
		},
		{
			"buffer":0,
			"byteLength":101664,
			"byteOffset":722144,
			"target":34963
		},
		{
			"buffer":0,
			"byteLength":87012,
			"byteOffset":823808,
			"target":34962
		},
		{
			"buffer":0,
			"byteLength":87012,
			"byteOffset":910820,
			"target":34962
		},
		{
			"buffer":0,
			"byteLength":58008,
			"byteOffset":997832,
			"target":34962
		},
		{
			"buffer":0,
			"byteLength":75672,
			"byteOffset":1055840,
			"target":34963
		},
		{
			"buffer":0,
			"byteLength":116352,
			"byteOffset":1131512,
			"target":34962
		},
		{
			"buffer":0,
			"byteLength":116352,
			"byteOffset":1247864,
			"target":34962
		},
		{
			"buffer":0,
			"byteLength":77568,
			"byteOffset":1364216,
			"target":34962
		},
		{
			"buffer":0,
			"byteLength":101664,
			"byteOffset":1441784,
			"target":34963
		}
	],
	"buffers":[
		{
			"byteLength":1543448,
			"uri":"road.bin"
		}
	]
}
