{
	"asset":{
		"generator":"Khronos glTF Blender I/O v4.5.47",
		"version":"2.0"
	},
	"extensionsUsed":[
		"KHR_texture_transform"
	],
	"extensionsRequired":[
		"KHR_texture_transform"
	],
	"scene":0,
	"scenes":[
		{
			"name":"Scene",
			"nodes":[
				1
			]
		}
	],
	"nodes":[
		{
			"mesh":0,
			"name":"Plane",
			"rotation":[
				-0.2234557867050171,
				0.008815952576696873,
				0.01266254298388958,
				0.9745919704437256
			],
			"translation":[
				0.047357864677906036,
				0.5956732630729675,
				-0.17024239897727966
			]
		},
		{
			"children":[
				0
			],
			"mesh":1,
			"name":"rocking_chair",
			"rotation":[
				0.14009346067905426,
				-0.2800857722759247,
				0.027462538331747055,
				0.9493005871772766
			],
			"translation":[
				-19.83380126953125,
				0.0630870833992958,
				-12.637560844421387
			]
		}
	],
	"materials":[
		{
			"alphaMode":"BLEND",
			"doubleSided":true,
			"name":"npc_acorn",
			"pbrMetallicRoughness":{
				"baseColorTexture":{
					"extensions":{
						"KHR_texture_transform":{
							"offset":[
								-0.2199999988079071,
								0.3799999952316284
							]
						}
					},
					"index":0
				},
				"metallicFactor":0,
				"roughnessFactor":0.5
			}
		},
		{
			"doubleSided":true,
			"name":"house_acorn_w_normals",
			"normalTexture":{
				"index":1
			},
			"pbrMetallicRoughness":{
				"baseColorTexture":{
					"index":2
				},
				"metallicFactor":0
			}
		}
	],
	"meshes":[
		{
			"name":"Plane",
			"primitives":[
				{
					"attributes":{
						"POSITION":0,
						"NORMAL":1,
						"TEXCOORD_0":2
					},
					"indices":3,
					"material":0
				}
			]
		},
		{
			"name":"Cube.009",
			"primitives":[
				{
					"attributes":{
						"POSITION":4,
						"NORMAL":5,
						"TEXCOORD_0":6
					},
					"indices":7,
					"material":1
				}
			]
		}
	],
	"textures":[
		{
			"sampler":0,
			"source":0
		},
		{
			"sampler":1,
			"source":1
		},
		{
			"sampler":1,
			"source":2
		}
	],
	"images":[
		{
			"mimeType":"image/png",
			"name":"ref",
			"uri":"ref.png"
		},
		{
			"mimeType":"image/png",
			"name":"house_acorn_normal",
			"uri":"house_acorn_normal.png"
		},
		{
			"mimeType":"image/png",
			"name":"house_acorn",
			"uri":"house_acorn.png"
		}
	],
	"accessors":[
		{
			"bufferView":0,
			"componentType":5126,
			"count":4,
			"max":[
				0.7883943915367126,
				0.7883871793746948,
				0.003618190996348858
			],
			"min":[
				-0.7883943915367126,
				-0.78838711977005,
				-0.003618190996348858
			],
			"type":"VEC3"
		},
		{
			"bufferView":1,
			"componentType":5126,
			"count":4,
			"type":"VEC3"
		},
		{
			"bufferView":2,
			"componentType":5126,
			"count":4,
			"type":"VEC2"
		},
		{
			"bufferView":3,
			"componentType":5123,
			"count":6,
			"type":"SCALAR"
		},
		{
			"bufferView":4,
			"componentType":5126,
			"count":2838,
			"max":[
				0.4477088451385498,
				0.98726886510849,
				0.4593023657798767
			],
			"min":[
				-0.418412446975708,
				-0.08833438158035278,
				-1.0887746810913086
			],
			"type":"VEC3"
		},
		{
			"bufferView":5,
			"componentType":5126,
			"count":2838,
			"type":"VEC3"
		},
		{
			"bufferView":6,
			"componentType":5126,
			"count":2838,
			"type":"VEC2"
		},
		{
			"bufferView":7,
			"componentType":5123,
			"count":16596,
			"type":"SCALAR"
		}
	],
	"bufferViews":[
		{
			"buffer":0,
			"byteLength":48,
			"byteOffset":0,
			"target":34962
		},
		{
			"buffer":0,
			"byteLength":48,
			"byteOffset":48,
			"target":34962
		},
		{
			"buffer":0,
			"byteLength":32,
			"byteOffset":96,
			"target":34962
		},
		{
			"buffer":0,
			"byteLength":12,
			"byteOffset":128,
			"target":34963
		},
		{
			"buffer":0,
			"byteLength":34056,
			"byteOffset":140,
			"target":34962
		},
		{
			"buffer":0,
			"byteLength":34056,
			"byteOffset":34196,
			"target":34962
		},
		{
			"buffer":0,
			"byteLength":22704,
			"byteOffset":68252,
			"target":34962
		},
		{
			"buffer":0,
			"byteLength":33192,
			"byteOffset":90956,
			"target":34963
		}
	],
	"samplers":[
		{
			"magFilter":9729,
			"minFilter":9987,
			"wrapS":33071,
			"wrapT":33071
		},
		{
			"magFilter":9729,
			"minFilter":9987
		}
	],
	"buffers":[
		{
			"byteLength":124148,
			"uri":"rocking_chair.bin"
		}
	]
}
