{
	"asset":{
		"generator":"Khronos glTF Blender I/O v4.5.47",
		"version":"2.0"
	},
	"scene":0,
	"scenes":[
		{
			"name":"Scene",
			"nodes":[
				0
			]
		}
	],
	"nodes":[
		{
			"mesh":0,
			"name":"bank",
			"rotation":[
				0,
				-0.31425270438194275,
				0,
				0.9493393898010254
			],
			"scale":[
				0.7098706960678101,
				0.7098706364631653,
				0.7098706960678101
			],
			"translation":[
				18.900114059448242,
				-0.011342465877532959,
				-1.026628017425537
			]
		}
	],
	"materials":[
		{
			"alphaMode":"BLEND",
			"doubleSided":true,
			"name":"road_w_normals",
			"normalTexture":{
				"index":0,
				"scale":0.690000057220459
			},
			"pbrMetallicRoughness":{
				"baseColorTexture":{
					"index":1
				},
				"metallicFactor":0
			}
		}
	],
	"meshes":[
		{
			"name":"Circle.004",
			"primitives":[
				{
					"attributes":{
						"POSITION":0,
						"NORMAL":1,
						"TEXCOORD_0":2
					},
					"indices":3,
					"material":0
				}
			]
		}
	],
	"textures":[
		{
			"sampler":0,
			"source":0
		},
		{
			"sampler":0,
			"source":1
		}
	],
	"images":[
		{
			"mimeType":"image/png",
			"name":"road_normal",
			"uri":"road_normal.png"
		},
		{
			"mimeType":"image/png",
			"name":"road",
			"uri":"road.png"
		}
	],
	"accessors":[
		{
			"bufferView":0,
			"componentType":5126,
			"count":3780,
			"max":[
				1.745197057723999,
				2.116830348968506,
				1.4502347707748413
			],
			"min":[
				-1.645195484161377,
				0.0017459392547607422,
				-1.454666018486023
			],
			"type":"VEC3"
		},
		{
			"bufferView":1,
			"componentType":5126,
			"count":3780,
			"type":"VEC3"
		},
		{
			"bufferView":2,
			"componentType":5126,
			"count":3780,
			"type":"VEC2"
		},
		{
			"bufferView":3,
			"componentType":5123,
			"count":19992,
			"type":"SCALAR"
		}
	],
	"bufferViews":[
		{
			"buffer":0,
			"byteLength":45360,
			"byteOffset":0,
			"target":34962
		},
		{
			"buffer":0,
			"byteLength":45360,
			"byteOffset":45360,
			"target":34962
		},
		{
			"buffer":0,
			"byteLength":30240,
			"byteOffset":90720,
			"target":34962
		},
		{
			"buffer":0,
			"byteLength":39984,
			"byteOffset":120960,
			"target":34963
		}
	],
	"samplers":[
		{
			"magFilter":9729,
			"minFilter":9987
		}
	],
	"buffers":[
		{
			"byteLength":160944,
			"uri":"table.bin"
		}
	]
}
